
        <svg xmlns="http://www.w3.org/2000/svg" xmlns:xlink="http://www.w3.org/1999/xlink" version="1.1" width="3171.4285714285716" height="751.3777693734103" viewBox="0 0 3171.4285714285716 751.3777693734103">
			
			<g transform="scale(8.571428571428571) translate(10, 10)">
				<defs id="SvgjsDefs1077"/><g id="SvgjsG1078" featureKey="nameFeature-0" transform="matrix(1.331843803781578,0,0,1.331843803781578,0.16049301086257234,-14.969924049670082)" fill="#fff"><path d="M20.24 11.52 c9.04 0 14.88 2.56 14.08 6.32 l-0.4 1.96 l-10.64 0 l0.24 -1.16 c0.4 -2 -1.56 -3.08 -4.12 -3.08 c-2.72 0 -4.96 0.92 -5.24 2.24 c-0.28 1.2 0.04 2.12 2.24 3.48 l9.44 5.76 c3.76 2.32 6.08 3.84 5.36 7.2 c-0.84 4.08 -8.56 6.36 -17.08 6.36 c-8.6 0 -15.04 -2.32 -14.16 -6.36 l0.6 -2.96 l10.76 0 l-0.56 2.64 c-0.36 1.76 1.48 2.6 4.2 2.6 c2.64 0 4.96 -0.92 5.32 -2.6 c0.32 -1.48 -0.72 -2.64 -2.68 -3.84 l-7.92 -4.32 c-4.96 -3.16 -7.16 -4.04 -6.36 -7.92 c0.2 -1 0.8 -1.88 1.76 -2.64 c0 0 2.64 -1.88 -2.64 -3.32 c17.36 -0.36 17.56 -0.36 17.8 -0.36 z M67.88 39.52 l-3.16 0.48 l-1.88 0 l-10.96 0 c-10.2 0 -14.92 -3.52 -13.76 -8.08 c1 -3.96 5.12 -6.08 10.96 -7.24 c-4.24 -0.84 -5.84 -3.48 -5.24 -5.88 c0.36 -1.36 1.16 -2.52 2.36 -3.48 l0.08 -0.08 c0.44 -0.4 2.04 -2.2 -2.28 -3.6 l17.16 0.04 l6.84 0 c2.52 0.44 2.52 2.44 2.4 3.28 l-0.16 0.72 l-6.96 0 l-3.96 0 c-2.84 0 -4.64 0.72 -5.56 1.92 c-0.32 0.4 -0.56 0.84 -0.68 1.36 c-0.68 2.72 0.4 3.48 7.96 3.48 l0.52 0 l0.92 0 l6.12 -2.32 l4.2 0 l0.04 0 l-0.84 3.24 l3.56 2.88 l-0.72 2.76 l-4.28 0 l-1.92 7.52 z M59.88 29 l0.6 -2.28 l-2.12 0 c-4.6 0 -7.2 0.96 -8.68 2.52 c-0.72 0.76 -1.16 1.68 -1.44 2.68 c-0.56 2.24 2.04 4.04 6.28 4.04 l3.6 0 z M100.84 11.239999999999998 c10.76 0 14.88 3.48 14.28 6.36 l-0.48 2.24 l-10.72 0 l0.44 -2.24 c0.2 -0.84 -1.28 -2.28 -4.36 -2.28 c-3.76 0 -5.68 1.44 -5.84 2.28 l-3.44 16.36 c-0.2 0.84 1.12 2.28 4.88 2.28 c3.04 0 5.16 -1.44 5.32 -2.28 l0.48 -2.24 l10.72 0 l-0.48 2.24 c-0.6 2.88 -6.16 6.36 -16.92 6.36 c-11.76 0 -15.44 -3.48 -14.84 -6.32 l3.44 -16.4 c0.16 -0.76 0.68 -1.56 1.48 -2.32 c0 0 2.68 -2.12 -2.2 -3.64 z M171.76 11.68 l-17.08 12.68 l14.36 15.64 l-12.28 0 l-8.6 -10.88 l-0.76 0 c-0.96 3.84 -3.64 10.88 -12.96 10.88 c5.2 -24.92 5.24 -24.6 5.24 -24.84 c0.08 -0.52 0.24 -2.44 -2.48 -3.48 l10.32 0 c3 0.32 2.96 2.52 2.84 3.36 l-1.44 6.76 l0.16 0 l12.64 -10.12 l10.04 0 z M186.84 11.68 c3.2 0.12 3.36 2.2 3.28 3.2 c-3.08 14.52 -3.08 14.52 -3.08 14.56 c-0.84 3.48 -3.52 10.56 -12.88 10.56 l5.24 -24.92 c0.08 -0.56 0.16 -2.4 -2.48 -3.4 l9.92 0 z M222.48000000000002 11.68 c3.28 0.12 3.36 2.36 3.08 4 l-11 0 l-2.72 12.92 c-0.92 3.88 -3.72 11.4 -13.04 11.4 l5.12 -24.32 l-4.84 0 l-0.56 0 c-0.8 0 -2.28 -0.2 -3.12 -1 c-0.16 -0.16 -0.28 -0.36 -0.36 -0.6 c-0.36 -0.8 -0.84 -1.32 -1.32 -1.68 c-0.72 -0.56 -1.36 -0.72 -1.36 -0.72 l30.12 0 z M248.52000000000004 11.52 c9.04 0 14.88 2.56 14.08 6.32 l-0.4 1.96 l-10.64 0 l0.24 -1.16 c0.4 -2 -1.56 -3.08 -4.12 -3.08 c-2.72 0 -4.96 0.92 -5.24 2.24 c-0.28 1.2 0.04 2.12 2.24 3.48 l9.44 5.76 c3.76 2.32 6.08 3.84 5.36 7.2 c-0.84 4.08 -8.56 6.36 -17.08 6.36 c-8.6 0 -15.04 -2.32 -14.16 -6.36 l0.6 -2.96 l10.76 0 l-0.56 2.64 c-0.36 1.76 1.48 2.6 4.2 2.6 c2.64 0 4.96 -0.92 5.32 -2.6 c0.32 -1.48 -0.72 -2.64 -2.68 -3.84 l-7.92 -4.32 c-4.96 -3.16 -7.16 -4.04 -6.36 -7.92 c0.2 -1 0.8 -1.88 1.76 -2.64 c0 0 2.64 -1.88 -2.64 -3.32 c17.36 -0.36 17.56 -0.36 17.8 -0.36 z"/></g><g id="SvgjsG1079" featureKey="sloganFeature-0" transform="matrix(0.5346134143805679,0,0,0.5346134143805679,76.57230926212246,56.808087856183334)" fill="#fff"><path d="M0.8 20 l0 -15.6 l3.98 0 l0 6.06 l6.36 0 l0 -6.06 l4 0 l0 15.6 l-4 0 l0 -5.8 l-6.36 0 l0 5.8 l-3.98 0 z M16.74 20 l6.32 -15.6 l3.96 0 l6.3 15.6 l-4.36 0 l-1.26 -3.48 l-5.3 0 l-1.3 3.48 l-4.36 0 z M23.64 13.280000000000001 l2.78 -0.02 l-1.38 -3.74 z M34.919999999999995 20 l0 -15.6 l3.4 0 l6.96 8.72 l0 -8.72 l3.98 0 l0 15.6 l-3.38 0 l-6.96 -8.7 l0 8.7 l-4 0 z M50.85999999999999 20 l0 -15.6 l7.24 0 c1.58 0 2.92 0.36 4.06 1.08 s1.98 1.66 2.52 2.82 s0.8 2.46 0.8 3.9 c0 1.46 -0.26 2.76 -0.8 3.92 s-1.38 2.1 -2.52 2.8 c-1.14 0.72 -2.48 1.08 -4.06 1.08 l-7.24 0 z M54.85999999999999 16.14 l2.94 0 c1.16 0 2.06 -0.36 2.7 -1.08 c0.62 -0.7 0.94 -1.66 0.94 -2.86 s-0.32 -2.16 -0.94 -2.86 c-0.64 -0.7 -1.54 -1.06 -2.7 -1.06 l-2.94 0 l0 7.86 z M75.36 20.3 c-2.26 0 -4.2 -0.8 -5.82 -2.38 c-1.64 -1.58 -2.46 -3.5 -2.46 -5.72 s0.82 -4.14 2.46 -5.72 c1.62 -1.58 3.56 -2.38 5.82 -2.38 c2.28 0 4.24 0.8 5.86 2.38 c1.22 1.18 1.98 2.56 2.26 4.1 l-4.18 0 c-0.2 -0.52 -0.52 -1 -0.92 -1.4 c-0.82 -0.82 -1.82 -1.22 -3.02 -1.22 c-1.18 0 -2.18 0.42 -3 1.24 s-1.24 1.82 -1.24 3 s0.42 2.18 1.24 3 s1.82 1.24 3 1.24 c1.2 0 2.2 -0.42 3.02 -1.24 c0.56 -0.56 0.92 -1.18 1.1 -1.92 l4.08 0 c-0.22 1.78 -0.98 3.32 -2.34 4.64 c-1.62 1.58 -3.58 2.38 -5.86 2.38 z M85.16 20 l0 -15.6 l6.88 0 c1.96 0 3.48 0.5 4.54 1.5 c1.06 1.02 1.58 2.28 1.58 3.74 c0 1.54 -0.52 2.82 -1.58 3.82 c-0.34 0.32 -0.72 0.58 -1.14 0.8 l3.12 5.74 l-3.78 0 l-2.74 -5.02 l-2.88 0 l0 5.02 l-4 0 z M89.16 11.78 l2.66 0 c1.54 0 2.3 -0.7 2.3 -2.12 c0 -0.6 -0.18 -1.08 -0.56 -1.48 s-0.96 -0.58 -1.74 -0.58 l-2.66 0 l0 4.18 z M100.16 20 l6.32 -15.6 l3.96 0 l6.3 15.6 l-4.36 0 l-1.26 -3.48 l-5.3 0 l-1.3 3.48 l-4.36 0 z M107.06 13.280000000000001 l2.78 -0.02 l-1.38 -3.74 z M118.33999999999999 20 l0 -15.6 l11.98 0 l0 3.88 l-7.98 0 l0 2.24 l5.62 0 l0 3.62 l-5.62 0 l0 5.86 l-4 0 z M136.78 20 l0 -11.72 l-4.86 0 l0 -3.88 l13.72 0 l0 3.88 l-4.86 0 l0 11.72 l-4 0 z M147.24 20 l0 -15.6 l11.98 0 l0 3.88 l-7.98 0 l0 2.24 l5.62 0 l0 3.62 l-5.62 0 l0 2 l7.98 0 l0 3.86 l-11.98 0 z M160.82000000000002 20 l0 -15.6 l7.24 0 c1.58 0 2.92 0.36 4.06 1.08 s1.98 1.66 2.52 2.82 s0.8 2.46 0.8 3.9 c0 1.46 -0.26 2.76 -0.8 3.92 s-1.38 2.1 -2.52 2.8 c-1.14 0.72 -2.48 1.08 -4.06 1.08 l-7.24 0 z M164.82000000000002 16.14 l2.94 0 c1.16 0 2.06 -0.36 2.7 -1.08 c0.62 -0.7 0.94 -1.66 0.94 -2.86 s-0.32 -2.16 -0.94 -2.86 c-0.64 -0.7 -1.54 -1.06 -2.7 -1.06 l-2.94 0 l0 7.86 z M188.42000000000002 20 l-4.38 -15.6 l4.26 0 l2.52 9.3 l2.92 -9.3 l3.56 0 l2.92 9.28 l2.52 -9.28 l4.28 0 l-4.38 15.6 l-4.14 0 l-2.98 -9.06 l-2.96 9.06 l-4.14 0 z M208.62000000000003 20 l0 -15.6 l4 0 l0 15.6 l-4 0 z M214.22000000000003 20 l0 -15.6 l7.24 0 c1.58 0 2.92 0.36 4.06 1.08 s1.98 1.66 2.52 2.82 s0.8 2.46 0.8 3.9 c0 1.46 -0.26 2.76 -0.8 3.92 s-1.38 2.1 -2.52 2.8 c-1.14 0.72 -2.48 1.08 -4.06 1.08 l-7.24 0 z M218.22000000000003 16.14 l2.94 0 c1.16 0 2.06 -0.36 2.7 -1.08 c0.62 -0.7 0.94 -1.66 0.94 -2.86 s-0.32 -2.16 -0.94 -2.86 c-0.64 -0.7 -1.54 -1.06 -2.7 -1.06 l-2.94 0 l0 7.86 z M230.44000000000003 20 l0 -15.6 l11.98 0 l0 3.88 l-7.98 0 l0 2.24 l5.62 0 l0 3.62 l-5.62 0 l0 2 l7.98 0 l0 3.86 l-11.98 0 z M244.02000000000004 20 l0 -15.6 l7.76 0 c1.62 0 2.88 0.4 3.76 1.2 c0.86 0.8 1.3 1.86 1.3 3.2 c0 1.52 -0.64 2.64 -1.9 3.34 c1.26 0.72 1.9 1.94 1.9 3.46 c0 1.34 -0.44 2.4 -1.3 3.2 c-0.88 0.82 -2.14 1.2 -3.76 1.2 l-7.76 0 z M248.02000000000004 10.66 l3.3 0 c0.98 0 1.48 -0.44 1.48 -1.28 c0 -0.38 -0.1 -0.7 -0.32 -0.94 c-0.22 -0.22 -0.52 -0.32 -0.94 -0.32 l-3.52 0 l0 2.54 z M248.02000000000004 16.28 l3.52 0 c0.42 0 0.72 -0.1 0.94 -0.32 c0.22 -0.24 0.32 -0.54 0.32 -0.94 c0 -0.84 -0.5 -1.28 -1.48 -1.28 l-3.3 0 l0 2.54 z M266.72 20.3 c-2.26 0 -4.2 -0.8 -5.82 -2.38 c-1.64 -1.58 -2.46 -3.5 -2.46 -5.72 s0.82 -4.14 2.46 -5.72 c1.62 -1.58 3.56 -2.38 5.82 -2.38 c2.28 0 4.24 0.8 5.86 2.38 s2.42 3.5 2.42 5.72 s-0.8 4.14 -2.42 5.72 s-3.58 2.38 -5.86 2.38 z M266.72 16.44 c1.2 0 2.2 -0.42 3.02 -1.24 s1.22 -1.82 1.22 -3 s-0.4 -2.2 -1.22 -3.02 s-1.82 -1.22 -3.02 -1.22 c-1.18 0 -2.18 0.42 -3 1.24 s-1.24 1.82 -1.24 3 s0.42 2.18 1.24 3 s1.82 1.24 3 1.24 z M276.6000000000001 20 l0 -15.6 l7.24 0 c1.58 0 2.92 0.36 4.06 1.08 s1.98 1.66 2.52 2.82 s0.8 2.46 0.8 3.9 c0 1.46 -0.26 2.76 -0.8 3.92 s-1.38 2.1 -2.52 2.8 c-1.14 0.72 -2.48 1.08 -4.06 1.08 l-7.24 0 z M280.6000000000001 16.14 l2.94 0 c1.16 0 2.06 -0.36 2.7 -1.08 c0.62 -0.7 0.94 -1.66 0.94 -2.86 s-0.32 -2.16 -0.94 -2.86 c-0.64 -0.7 -1.54 -1.06 -2.7 -1.06 l-2.94 0 l0 7.86 z M298.9800000000001 20 l0 -5.72 l-6.16 -9.88 l4.7 0 l3.44 5.66 l3.46 -5.66 l4.72 0 l-6.18 9.88 l0 5.72 l-3.98 0 z M317.7400000000001 20 l0 -15.6 l4 0 l0 5.38 l4.84 -5.38 l5.16 0 l-6.16 6.7 l6.48 8.9 l-4.96 0 l-4.3 -5.88 l-1.06 1.18 l0 4.7 l-4 0 z M333.66000000000014 20 l0 -15.6 l4 0 l0 15.6 l-4 0 z M344.1200000000002 20 l0 -11.72 l-4.86 0 l0 -3.88 l13.72 0 l0 3.88 l-4.86 0 l0 11.72 l-4 0 z M361.22000000000014 20.3 c-1.94 0 -3.52 -0.42 -4.76 -1.28 s-1.86 -2.02 -1.86 -3.52 l0 -0.18 l-0.02 -0.8 l3.92 0 l0 0.9 c0 0.34 0.24 0.66 0.7 0.96 s1.1 0.46 1.94 0.46 c0.7 0 1.2 -0.1 1.52 -0.28 c0.3 -0.18 0.46 -0.42 0.46 -0.68 c0 -0.32 -0.2 -0.6 -0.58 -0.84 c-0.4 -0.24 -1.1 -0.52 -2.08 -0.86 c-0.62 -0.22 -1.14 -0.4 -1.56 -0.56 s-0.92 -0.4 -1.5 -0.72 c-0.58 -0.3 -1.06 -0.64 -1.4 -0.98 s-0.64 -0.76 -0.9 -1.28 s-0.38 -1.08 -0.38 -1.7 c0 -1.46 0.56 -2.64 1.7 -3.52 s2.6 -1.32 4.4 -1.32 c1.86 0 3.38 0.46 4.58 1.38 s1.8 2.14 1.8 3.66 l0 0.98 l-3.9 0 l0 -0.9 c0 -0.42 -0.2 -0.82 -0.62 -1.16 s-1.02 -0.5 -1.78 -0.5 c-0.62 0 -1.1 0.1 -1.42 0.3 c-0.32 0.22 -0.48 0.46 -0.48 0.76 s0.18 0.54 0.54 0.74 c0.36 0.22 1.04 0.5 2.04 0.84 l1.02 0.36 l1.08 0.44 c0.46 0.22 0.84 0.4 1.12 0.58 s0.6 0.42 0.98 0.72 s0.66 0.62 0.88 0.92 c0.2 0.3 0.38 0.68 0.54 1.1 c0.14 0.42 0.22 0.88 0.22 1.34 c0 1.48 -0.58 2.62 -1.72 3.42 c-1.14 0.82 -2.64 1.22 -4.48 1.22 z"/></g>
			</g>
		</svg>
	